<svg width="24" height="25" viewBox="0 0 24 25" fill="none" xmlns="http://www.w3.org/2000/svg">
<g clip-path="url(#clip0)">
<path d="M12.2599 0.959513C8.17509 0.948799 4.58045 3.06219 2.52599 6.25505C2.43491 6.39701 2.5367 6.58451 2.70545 6.58451H4.58849C4.71706 6.58451 4.83759 6.52826 4.91795 6.42916C5.10545 6.20148 5.30634 5.98184 5.51795 5.77291C6.39116 4.90237 7.40634 4.21666 8.5367 3.73987C9.70456 3.24701 10.9474 2.99523 12.2304 2.99523C13.5135 2.99523 14.7563 3.24433 15.9242 3.73987C17.0546 4.21666 18.0697 4.90237 18.943 5.77291C19.8162 6.64344 20.4992 7.65862 20.9787 8.7863C21.4742 9.95416 21.7233 11.1943 21.7233 12.4774C21.7233 13.7604 21.4715 15.0006 20.9787 16.1684C20.5019 17.2961 19.8162 18.3113 18.943 19.1818C18.0697 20.0524 17.0546 20.7381 15.9242 21.2149C14.7554 21.7085 13.4992 21.9618 12.2304 21.9595C10.9474 21.9595 9.70456 21.7077 8.5367 21.2149C7.40856 20.7386 6.38341 20.0482 5.51795 19.1818C5.30634 18.9702 5.10813 18.7506 4.91795 18.5256C4.83759 18.4265 4.71438 18.3702 4.58849 18.3702H2.70545C2.5367 18.3702 2.43224 18.5577 2.52599 18.6997C4.57777 21.8845 8.15634 23.9952 12.2304 23.9952C18.5572 23.9952 23.6947 18.9033 23.759 12.5952C23.8233 6.18541 18.6778 0.975585 12.2599 0.959513ZM8.8667 15.4774V13.4417H0.455985C0.338128 13.4417 0.241699 13.3452 0.241699 13.2274V11.7274C0.241699 11.6095 0.338128 11.5131 0.455985 11.5131H8.8667V9.47737C8.8667 9.29791 9.07563 9.19612 9.21491 9.30862L13.0158 12.3086C13.0414 12.3287 13.0621 12.3543 13.0764 12.3835C13.0906 12.4128 13.098 12.4448 13.098 12.4774C13.098 12.5099 13.0906 12.542 13.0764 12.5712C13.0621 12.6005 13.0414 12.6261 13.0158 12.6461L9.21491 15.6461C9.07563 15.7559 8.8667 15.6568 8.8667 15.4774Z" fill="#1890FF"/>
</g>
<defs>
<clipPath id="clip0">
<rect width="24" height="24" fill="white" transform="translate(0 0.476074)"/>
</clipPath>
</defs>
</svg>
