<svg width="16" height="16" viewBox="0 0 16 16" fill="none" xmlns="http://www.w3.org/2000/svg">
<path d="M8.53558 1.57275H7.46415C7.36891 1.57275 7.32129 1.62037 7.32129 1.71561V7.32275H2.00028C1.90504 7.32275 1.85742 7.37037 1.85742 7.46561V8.53704C1.85742 8.63228 1.90504 8.6799 2.00028 8.6799H7.32129V14.287C7.32129 14.3823 7.36891 14.4299 7.46415 14.4299H8.53558C8.63081 14.4299 8.67843 14.3823 8.67843 14.287V8.6799H14.0003C14.0955 8.6799 14.1431 8.63228 14.1431 8.53704V7.46561C14.1431 7.37037 14.0955 7.32275 14.0003 7.32275H8.67843V1.71561C8.67843 1.62037 8.63081 1.57275 8.53558 1.57275Z" fill="black" fill-opacity="0.25"/>
</svg>
