<svg width="24" height="25" viewBox="0 0 24 25" fill="none" xmlns="http://www.w3.org/2000/svg">
<g clip-path="url(#clip0)">
<path d="M21.5361 18.3703H19.6531C19.5245 18.3703 19.404 18.4265 19.3236 18.5256C19.1361 18.7533 18.9352 18.973 18.7236 19.1819C17.8581 20.0482 16.833 20.7386 15.7049 21.2149C14.5361 21.7086 13.2799 21.9618 12.0111 21.9596C10.7281 21.9596 9.48521 21.7078 8.31735 21.2149C7.18921 20.7386 6.16407 20.0482 5.2986 19.1819C4.43159 18.3185 3.74025 17.2951 3.26289 16.1685C2.76735 15.0006 2.51824 13.7605 2.51824 12.4774C2.51824 11.1944 2.77003 9.95422 3.26289 8.78636C3.73967 7.65868 4.42539 6.6435 5.2986 5.77297C6.17182 4.90243 7.18699 4.21672 8.31735 3.73993C9.48521 3.24707 10.7281 2.99529 12.0111 2.99529C13.2941 2.99529 14.537 3.2444 15.7049 3.73993C16.8352 4.21672 17.8504 4.90243 18.7236 5.77297C18.9352 5.98457 19.1334 6.20422 19.3236 6.42922C19.404 6.52832 19.5272 6.58457 19.6531 6.58457H21.5361C21.7049 6.58457 21.8093 6.39707 21.7156 6.25511C19.6611 3.06225 16.0665 0.94886 11.9816 0.959574C5.56378 0.975646 0.418244 6.18547 0.482529 12.5953C0.546815 18.9033 5.68432 23.9953 12.0111 23.9953C16.0852 23.9953 19.6638 21.8846 21.7156 18.6998C21.8066 18.5578 21.7049 18.3703 21.5361 18.3703ZM23.9174 12.3087L20.1165 9.30868C19.9745 9.19618 19.7682 9.29797 19.7682 9.47743V11.5131H11.3575C11.2397 11.5131 11.1432 11.6096 11.1432 11.7274V13.2274C11.1432 13.3453 11.2397 13.4417 11.3575 13.4417H19.7682V15.4774C19.7682 15.6569 19.9772 15.7587 20.1165 15.6462L23.9174 12.6462C23.943 12.6261 23.9637 12.6005 23.9779 12.5713C23.9922 12.5421 23.9996 12.51 23.9996 12.4774C23.9996 12.4449 23.9922 12.4128 23.9779 12.3836C23.9637 12.3543 23.943 12.3287 23.9174 12.3087V12.3087Z" fill="#0050B3"/>
</g>
<defs>
<clipPath id="clip0">
<rect width="24" height="24" fill="white" transform="translate(0 0.476196)"/>
</clipPath>
</defs>
</svg>
