<svg width="34" height="34" viewBox="0 0 34 34" fill="none" xmlns="http://www.w3.org/2000/svg">
<path d="M17 2.125C8.78555 2.125 2.125 8.78555 2.125 17C2.125 25.2145 8.78555 31.875 17 31.875C25.2145 31.875 31.875 25.2145 31.875 17C31.875 8.78555 25.2145 2.125 17 2.125ZM17 29.3516C10.1801 29.3516 4.64844 23.8199 4.64844 17C4.64844 10.1801 10.1801 4.64844 17 4.64844C23.8199 4.64844 29.3516 10.1801 29.3516 17C29.3516 23.8199 23.8199 29.3516 17 29.3516ZM14.0781 11.6875H12.4844C12.3383 11.6875 12.2188 11.807 12.2188 11.9531V22.0469C12.2188 22.193 12.3383 22.3125 12.4844 22.3125H14.0781C14.2242 22.3125 14.3438 22.193 14.3438 22.0469V11.9531C14.3438 11.807 14.2242 11.6875 14.0781 11.6875ZM21.5156 11.6875H19.9219C19.7758 11.6875 19.6562 11.807 19.6562 11.9531V22.0469C19.6562 22.193 19.7758 22.3125 19.9219 22.3125H21.5156C21.6617 22.3125 21.7812 22.193 21.7812 22.0469V11.9531C21.7812 11.807 21.6617 11.6875 21.5156 11.6875Z" fill="white"/>
</svg>
